<mxfile host="65bd71144e">
    <diagram id="C5RBs43oDa-KdzZeNtuy" name="Page-1">
        <mxGraphModel dx="4364" dy="3557" grid="1" gridSize="10" guides="1" tooltips="0" connect="1" arrows="1" fold="1" page="1" pageScale="1" pageWidth="827" pageHeight="1169" math="0" shadow="0">
            <root>
                <mxCell id="WIyWlLk6GJQsqaUBKTNV-0"/>
                <mxCell id="WIyWlLk6GJQsqaUBKTNV-1" parent="WIyWlLk6GJQsqaUBKTNV-0"/>
                <mxCell id="WsfcxLLstA1aowzWTePN-405" value="A LINHA TRACEJADA COM SETA BRANCA NA PONTA SIGNIFICA &lt;b style=&quot;font-size: 12px;&quot;&gt;REALIZACAO.&lt;br style=&quot;font-size: 12px;&quot;&gt;&lt;br style=&quot;font-size: 12px;&quot;&gt;&lt;/b&gt;São encontrados em dois locais&lt;br style=&quot;font-size: 12px;&quot;&gt;– Entre interfaces e as classes ou componentes&lt;br style=&quot;font-size: 12px;&quot;&gt;que as realizam&lt;br style=&quot;font-size: 12px;&quot;&gt;– Entre casos de uso e as colaborações que os&lt;br style=&quot;font-size: 12px;&quot;&gt;realizam&lt;br style=&quot;font-size: 12px;&quot;&gt;&lt;br style=&quot;font-size: 12px;&quot;&gt;&lt;b style=&quot;font-size: 12px;&quot;&gt;Consultar: https://www.dimap.ufrn.br/~thais/MES20061/UMLParte2.pdf&lt;/b&gt;" style="text;html=1;align=center;verticalAlign=middle;resizable=0;points=[];autosize=1;strokeColor=none;fillColor=none;fontSize=12;" parent="WIyWlLk6GJQsqaUBKTNV-1" vertex="1">
                    <mxGeometry x="650" y="2400" width="470" height="140" as="geometry"/>
                </mxCell>
                <mxCell id="8" value="Funcionario" style="swimlane;fontStyle=0;align=center;verticalAlign=top;childLayout=stackLayout;horizontal=1;startSize=26;horizontalStack=0;resizeParent=1;resizeLast=0;collapsible=1;marginBottom=0;rounded=0;shadow=0;strokeWidth=1;fontSize=12;" vertex="1" parent="WIyWlLk6GJQsqaUBKTNV-1">
                    <mxGeometry x="1200" y="800" width="160" height="230" as="geometry">
                        <mxRectangle x="340" y="380" width="170" height="26" as="alternateBounds"/>
                    </mxGeometry>
                </mxCell>
                <mxCell id="9" value="- nome: str" style="text;html=1;strokeColor=none;fillColor=none;align=left;verticalAlign=middle;whiteSpace=wrap;rounded=0;fontSize=12;" vertex="1" parent="8">
                    <mxGeometry y="26" width="160" height="24" as="geometry"/>
                </mxCell>
                <mxCell id="10" value="- cargo: str" style="text;html=1;strokeColor=none;fillColor=none;align=left;verticalAlign=middle;whiteSpace=wrap;rounded=0;fontSize=12;" vertex="1" parent="8">
                    <mxGeometry y="50" width="160" height="24" as="geometry"/>
                </mxCell>
                <mxCell id="11" value="- cpf: str" style="text;html=1;strokeColor=none;fillColor=none;align=left;verticalAlign=middle;whiteSpace=wrap;rounded=0;fontSize=12;" vertex="1" parent="8">
                    <mxGeometry y="74" width="160" height="24" as="geometry"/>
                </mxCell>
                <mxCell id="12" value="- endereço: str" style="text;html=1;strokeColor=none;fillColor=none;align=left;verticalAlign=middle;whiteSpace=wrap;rounded=0;fontSize=12;" vertex="1" parent="8">
                    <mxGeometry y="98" width="160" height="24" as="geometry"/>
                </mxCell>
                <mxCell id="13" value="- telefone: str" style="text;html=1;strokeColor=none;fillColor=none;align=left;verticalAlign=middle;whiteSpace=wrap;rounded=0;fontSize=12;" vertex="1" parent="8">
                    <mxGeometry y="122" width="160" height="24" as="geometry"/>
                </mxCell>
                <mxCell id="14" value="- email: str" style="text;html=1;strokeColor=none;fillColor=none;align=left;verticalAlign=middle;whiteSpace=wrap;rounded=0;fontSize=12;" vertex="1" parent="8">
                    <mxGeometry y="146" width="160" height="24" as="geometry"/>
                </mxCell>
                <mxCell id="15" value="" style="line;html=1;strokeWidth=1;align=left;verticalAlign=middle;spacingTop=-1;spacingLeft=3;spacingRight=3;rotatable=0;labelPosition=right;points=[];portConstraint=eastwest;fontSize=12;" vertex="1" parent="8">
                    <mxGeometry y="170" width="160" height="8" as="geometry"/>
                </mxCell>
                <mxCell id="16" value="&lt;span style=&quot;border-color: var(--border-color); font-size: 12px;&quot;&gt;+ &amp;lt;&amp;lt;create&amp;gt;&amp;gt; __init__ (cpf, nome, email, telefone, cargo, endereco)&lt;/span&gt;" style="text;html=1;strokeColor=none;fillColor=none;align=left;verticalAlign=middle;whiteSpace=wrap;rounded=0;fontSize=12;" vertex="1" parent="8">
                    <mxGeometry y="178" width="160" height="52" as="geometry"/>
                </mxCell>
                <mxCell id="17" style="edgeStyle=orthogonalEdgeStyle;rounded=0;orthogonalLoop=1;jettySize=auto;html=1;exitX=1;exitY=0.5;exitDx=0;exitDy=0;endArrow=open;endFill=0;endSize=10;startSize=10;fontSize=12;" edge="1" parent="WIyWlLk6GJQsqaUBKTNV-1" source="23">
                    <mxGeometry relative="1" as="geometry">
                        <Array as="points">
                            <mxPoint x="1060" y="910"/>
                            <mxPoint x="1200" y="910"/>
                        </Array>
                        <mxPoint x="1200" y="910" as="targetPoint"/>
                    </mxGeometry>
                </mxCell>
                <mxCell id="18" value="Emprestimo" style="swimlane;fontStyle=0;align=center;verticalAlign=top;childLayout=stackLayout;horizontal=1;startSize=26;horizontalStack=0;resizeParent=1;resizeLast=0;collapsible=1;marginBottom=0;rounded=0;shadow=0;strokeWidth=1;fontSize=12;" vertex="1" parent="WIyWlLk6GJQsqaUBKTNV-1">
                    <mxGeometry x="850" y="790" width="210" height="232" as="geometry">
                        <mxRectangle x="340" y="380" width="170" height="26" as="alternateBounds"/>
                    </mxGeometry>
                </mxCell>
                <mxCell id="19" value="- data_inicio: date" style="text;html=1;strokeColor=none;fillColor=none;align=left;verticalAlign=middle;whiteSpace=wrap;rounded=0;spacing=2;fontSize=12;" vertex="1" parent="18">
                    <mxGeometry y="26" width="210" height="24" as="geometry"/>
                </mxCell>
                <mxCell id="20" value="- id: str" style="text;html=1;strokeColor=none;fillColor=none;align=left;verticalAlign=middle;whiteSpace=wrap;rounded=0;spacing=2;fontSize=12;" vertex="1" parent="18">
                    <mxGeometry y="50" width="210" height="24" as="geometry"/>
                </mxCell>
                <mxCell id="21" value="&lt;font color=&quot;#000000&quot;&gt;- data_devolucao: date&lt;/font&gt;" style="text;html=1;strokeColor=none;fillColor=none;align=left;verticalAlign=middle;whiteSpace=wrap;rounded=0;spacing=2;fontSize=12;fontColor=#FF3333;" vertex="1" parent="18">
                    <mxGeometry y="74" width="210" height="24" as="geometry"/>
                </mxCell>
                <mxCell id="22" value="" style="line;html=1;strokeWidth=1;align=left;verticalAlign=middle;spacingTop=-1;spacingLeft=3;spacingRight=3;rotatable=0;labelPosition=right;points=[];portConstraint=eastwest;fontSize=12;" vertex="1" parent="18">
                    <mxGeometry y="98" width="210" height="8" as="geometry"/>
                </mxCell>
                <mxCell id="23" value="&lt;span style=&quot;border-color: var(--border-color); font-size: 12px;&quot;&gt;+ &amp;lt;&amp;lt;create&amp;gt;&amp;gt; __init__ (dispositivos, funcionario, data_inicio)&lt;/span&gt;" style="text;html=1;strokeColor=none;fillColor=none;align=left;verticalAlign=middle;whiteSpace=wrap;rounded=0;fontStyle=0;fontSize=12;" vertex="1" parent="18">
                    <mxGeometry y="106" width="210" height="32" as="geometry"/>
                </mxCell>
                <mxCell id="24" value="&lt;span style=&quot;border-color: var(--border-color); font-size: 12px;&quot;&gt;+ retorna_funcionario()&lt;br style=&quot;font-size: 12px;&quot;&gt;&lt;/span&gt;" style="text;html=1;strokeColor=none;fillColor=none;align=left;verticalAlign=middle;whiteSpace=wrap;rounded=0;fontStyle=0;fontSize=12;" vertex="1" parent="18">
                    <mxGeometry y="138" width="210" height="30" as="geometry"/>
                </mxCell>
                <mxCell id="25" value="&lt;span style=&quot;border-color: var(--border-color); font-size: 12px;&quot;&gt;+ retorna_dispositivos()&lt;br style=&quot;font-size: 12px;&quot;&gt;&lt;/span&gt;" style="text;html=1;strokeColor=none;fillColor=none;align=left;verticalAlign=middle;whiteSpace=wrap;rounded=0;fontStyle=0;fontSize=12;" vertex="1" parent="18">
                    <mxGeometry y="168" width="210" height="32" as="geometry"/>
                </mxCell>
                <mxCell id="26" value="&lt;span style=&quot;border-color: var(--border-color); font-size: 12px;&quot;&gt;+ esta_finalizado()&lt;br style=&quot;font-size: 12px;&quot;&gt;&lt;/span&gt;" style="text;html=1;strokeColor=none;fillColor=none;align=left;verticalAlign=middle;whiteSpace=wrap;rounded=0;fontStyle=0;fontSize=12;" vertex="1" parent="18">
                    <mxGeometry y="200" width="210" height="32" as="geometry"/>
                </mxCell>
                <mxCell id="27" value="- funcionario" style="text;html=1;strokeColor=none;fillColor=none;align=right;verticalAlign=middle;whiteSpace=wrap;rounded=0;spacing=2;fontSize=12;" vertex="1" parent="WIyWlLk6GJQsqaUBKTNV-1">
                    <mxGeometry x="1130" y="880" width="71" height="24" as="geometry"/>
                </mxCell>
                <mxCell id="28" value="Computador" style="swimlane;fontStyle=0;align=center;verticalAlign=top;childLayout=stackLayout;horizontal=1;startSize=26;horizontalStack=0;resizeParent=1;resizeLast=0;collapsible=1;marginBottom=0;rounded=0;shadow=0;strokeWidth=1;fontSize=12;" vertex="1" parent="WIyWlLk6GJQsqaUBKTNV-1">
                    <mxGeometry x="180" y="857" width="420" height="208" as="geometry">
                        <mxRectangle x="230" y="140" width="160" height="26" as="alternateBounds"/>
                    </mxGeometry>
                </mxCell>
                <mxCell id="29" value="- processador: str" style="text;html=1;strokeColor=none;fillColor=none;align=left;verticalAlign=middle;whiteSpace=wrap;rounded=0;fontSize=12;" vertex="1" parent="28">
                    <mxGeometry y="26" width="420" height="24" as="geometry"/>
                </mxCell>
                <mxCell id="30" value="- memoria_ram: float" style="text;html=1;strokeColor=none;fillColor=none;align=left;verticalAlign=middle;whiteSpace=wrap;rounded=0;fontSize=12;" vertex="1" parent="28">
                    <mxGeometry y="50" width="420" height="24" as="geometry"/>
                </mxCell>
                <mxCell id="31" value="- armazenamento: float [ ]" style="text;html=1;strokeColor=none;fillColor=none;align=left;verticalAlign=middle;whiteSpace=wrap;rounded=0;spacing=2;fontSize=12;" vertex="1" parent="28">
                    <mxGeometry y="74" width="420" height="24" as="geometry"/>
                </mxCell>
                <mxCell id="32" value="- sistema_operacional: str" style="text;html=1;strokeColor=none;fillColor=none;align=left;verticalAlign=middle;whiteSpace=wrap;rounded=0;spacing=2;fontSize=12;" vertex="1" parent="28">
                    <mxGeometry y="98" width="420" height="24" as="geometry"/>
                </mxCell>
                <mxCell id="33" value="- fim_garantia: date" style="text;html=1;strokeColor=none;fillColor=none;align=left;verticalAlign=middle;whiteSpace=wrap;rounded=0;spacing=2;fontSize=12;" vertex="1" parent="28">
                    <mxGeometry y="122" width="420" height="24" as="geometry"/>
                </mxCell>
                <mxCell id="34" value="" style="line;html=1;strokeWidth=1;align=left;verticalAlign=middle;spacingTop=-1;spacingLeft=3;spacingRight=3;rotatable=0;labelPosition=right;points=[];portConstraint=eastwest;fontSize=12;" vertex="1" parent="28">
                    <mxGeometry y="146" width="420" height="8" as="geometry"/>
                </mxCell>
                <mxCell id="35" value="+ &amp;lt;&amp;lt;create&amp;gt;&amp;gt; __init__ (patrimonio, marca, modelo, serial_number&lt;span style=&quot;font-size: 12px;&quot;&gt;, tipo, processador, memoria_ram, armazenamento, sistema_operacional)&lt;/span&gt;" style="text;html=1;strokeColor=none;fillColor=none;align=left;verticalAlign=middle;whiteSpace=wrap;rounded=0;spacing=2;fontStyle=0;fontSize=12;" vertex="1" parent="28">
                    <mxGeometry y="154" width="420" height="30" as="geometry"/>
                </mxCell>
                <mxCell id="36" value="&lt;span style=&quot;border-color: var(--border-color); font-size: 12px;&quot;&gt;+ esta_na_garantia&lt;span style=&quot;font-size: 12px;&quot;&gt;()&lt;br style=&quot;font-size: 12px;&quot;&gt;&lt;/span&gt;&lt;/span&gt;" style="text;html=1;strokeColor=none;fillColor=none;align=left;verticalAlign=middle;whiteSpace=wrap;rounded=0;fontStyle=0;fontSize=12;" vertex="1" parent="28">
                    <mxGeometry y="184" width="420" height="24" as="geometry"/>
                </mxCell>
                <mxCell id="37" style="edgeStyle=orthogonalEdgeStyle;rounded=0;orthogonalLoop=1;jettySize=auto;html=1;exitX=0.5;exitY=0;exitDx=0;exitDy=0;endArrow=open;endFill=0;endSize=10;startSize=10;fontSize=12;entryX=0.474;entryY=1.068;entryDx=0;entryDy=0;entryPerimeter=0;" edge="1" parent="WIyWlLk6GJQsqaUBKTNV-1" source="40" target="36">
                    <mxGeometry relative="1" as="geometry">
                        <mxPoint x="370" y="1137" as="targetPoint"/>
                        <Array as="points">
                            <mxPoint x="380" y="1097"/>
                            <mxPoint x="379" y="1097"/>
                        </Array>
                    </mxGeometry>
                </mxCell>
                <mxCell id="38" style="edgeStyle=orthogonalEdgeStyle;rounded=0;orthogonalLoop=1;jettySize=auto;html=1;startArrow=open;startFill=0;endArrow=open;endFill=0;endSize=10;startSize=10;fontSize=12;entryX=0.5;entryY=1;entryDx=0;entryDy=0;exitX=0.447;exitY=1.015;exitDx=0;exitDy=0;exitPerimeter=0;" edge="1" parent="WIyWlLk6GJQsqaUBKTNV-1" source="49" target="150">
                    <mxGeometry relative="1" as="geometry">
                        <Array as="points">
                            <mxPoint x="369" y="1620"/>
                            <mxPoint x="2310" y="1620"/>
                        </Array>
                        <mxPoint x="370" y="1314" as="sourcePoint"/>
                        <mxPoint x="1700" y="1510" as="targetPoint"/>
                    </mxGeometry>
                </mxCell>
                <mxCell id="39" style="rounded=0;orthogonalLoop=1;jettySize=auto;html=1;exitX=0;exitY=1;exitDx=0;exitDy=0;endSize=10;endArrow=block;endFill=0;entryX=0;entryY=0.25;entryDx=0;entryDy=0;edgeStyle=orthogonalEdgeStyle;fontSize=12;" edge="1" parent="WIyWlLk6GJQsqaUBKTNV-1" source="42" target="71">
                    <mxGeometry relative="1" as="geometry">
                        <mxPoint x="930" y="1111.5" as="targetPoint"/>
                        <Array as="points">
                            <mxPoint x="90" y="1246"/>
                            <mxPoint x="90" y="566"/>
                        </Array>
                    </mxGeometry>
                </mxCell>
                <mxCell id="40" value="ControladorComputadores" style="swimlane;fontStyle=0;align=center;verticalAlign=top;childLayout=stackLayout;horizontal=1;startSize=26;horizontalStack=0;resizeParent=1;resizeLast=0;collapsible=1;marginBottom=0;rounded=0;shadow=0;strokeWidth=1;fontSize=12;" vertex="1" parent="WIyWlLk6GJQsqaUBKTNV-1">
                    <mxGeometry x="280" y="1176" width="200" height="252" as="geometry">
                        <mxRectangle x="375.5" y="900" width="160" height="26" as="alternateBounds"/>
                    </mxGeometry>
                </mxCell>
                <mxCell id="41" value="" style="line;html=1;strokeWidth=1;align=left;verticalAlign=middle;spacingTop=-1;spacingLeft=3;spacingRight=3;rotatable=0;labelPosition=right;points=[];portConstraint=eastwest;fontSize=12;" vertex="1" parent="40">
                    <mxGeometry y="26" width="200" height="8" as="geometry"/>
                </mxCell>
                <mxCell id="42" value="&lt;span style=&quot;border-color: var(--border-color); font-size: 12px;&quot;&gt;+ &amp;lt;&amp;lt;create&amp;gt;&amp;gt; __init__ (controlador_dispositivos)&lt;/span&gt;" style="text;html=1;strokeColor=none;fillColor=none;align=left;verticalAlign=middle;whiteSpace=wrap;rounded=0;fontStyle=0;fontSize=12;" vertex="1" parent="40">
                    <mxGeometry y="34" width="200" height="36" as="geometry"/>
                </mxCell>
                <mxCell id="43" value="+&amp;nbsp;valores_dos_objetos(lista_obj)" style="text;html=1;strokeColor=none;fillColor=none;align=left;verticalAlign=middle;whiteSpace=wrap;rounded=0;fontStyle=0;fontSize=12;" vertex="1" parent="40">
                    <mxGeometry y="70" width="200" height="26" as="geometry"/>
                </mxCell>
                <mxCell id="44" value="+&amp;nbsp;lista()" style="text;html=1;strokeColor=none;fillColor=none;align=left;verticalAlign=middle;whiteSpace=wrap;rounded=0;fontStyle=0;fontSize=12;" vertex="1" parent="40">
                    <mxGeometry y="96" width="200" height="26" as="geometry"/>
                </mxCell>
                <mxCell id="45" value="+&amp;nbsp;inclui()" style="text;html=1;strokeColor=none;fillColor=none;align=left;verticalAlign=middle;whiteSpace=wrap;rounded=0;fontStyle=0;fontSize=12;" vertex="1" parent="40">
                    <mxGeometry y="122" width="200" height="26" as="geometry"/>
                </mxCell>
                <mxCell id="46" value="+&amp;nbsp;altera()" style="text;html=1;strokeColor=none;fillColor=none;align=left;verticalAlign=middle;whiteSpace=wrap;rounded=0;fontStyle=0;fontSize=12;" vertex="1" parent="40">
                    <mxGeometry y="148" width="200" height="26" as="geometry"/>
                </mxCell>
                <mxCell id="47" value="+&amp;nbsp;deleta()" style="text;html=1;strokeColor=none;fillColor=none;align=left;verticalAlign=middle;whiteSpace=wrap;rounded=0;fontStyle=0;fontSize=12;" vertex="1" parent="40">
                    <mxGeometry y="174" width="200" height="26" as="geometry"/>
                </mxCell>
                <mxCell id="48" value="+&amp;nbsp;abre_tela()" style="text;html=1;strokeColor=none;fillColor=none;align=left;verticalAlign=middle;whiteSpace=wrap;rounded=0;fontStyle=0;fontSize=12;" vertex="1" parent="40">
                    <mxGeometry y="200" width="200" height="26" as="geometry"/>
                </mxCell>
                <mxCell id="49" value="+&amp;nbsp;retorna()" style="text;html=1;strokeColor=none;fillColor=none;align=left;verticalAlign=middle;whiteSpace=wrap;rounded=0;fontStyle=0;fontSize=12;" vertex="1" parent="40">
                    <mxGeometry y="226" width="200" height="26" as="geometry"/>
                </mxCell>
                <mxCell id="50" value="- computadores" style="text;html=1;strokeColor=none;fillColor=none;align=left;verticalAlign=middle;whiteSpace=wrap;rounded=0;spacing=2;fontSize=12;" vertex="1" parent="WIyWlLk6GJQsqaUBKTNV-1">
                    <mxGeometry x="280" y="1068" width="90" height="24" as="geometry"/>
                </mxCell>
                <mxCell id="51" value="*" style="text;html=1;align=center;verticalAlign=middle;resizable=0;points=[];autosize=1;strokeColor=none;fillColor=none;fontSize=12;" vertex="1" parent="WIyWlLk6GJQsqaUBKTNV-1">
                    <mxGeometry x="380" y="1067" width="30" height="30" as="geometry"/>
                </mxCell>
                <mxCell id="52" value="1" style="text;html=1;align=center;verticalAlign=middle;resizable=0;points=[];autosize=1;strokeColor=none;fillColor=none;fontSize=12;" vertex="1" parent="WIyWlLk6GJQsqaUBKTNV-1">
                    <mxGeometry x="830" y="650" width="30" height="30" as="geometry"/>
                </mxCell>
                <mxCell id="53" style="edgeStyle=orthogonalEdgeStyle;rounded=0;orthogonalLoop=1;jettySize=auto;html=1;exitX=1;exitY=0.25;exitDx=0;exitDy=0;endSize=10;endArrow=open;endFill=0;startArrow=none;startFill=0;startSize=10;fontSize=12;entryX=0.471;entryY=-0.006;entryDx=0;entryDy=0;entryPerimeter=0;" edge="1" parent="WIyWlLk6GJQsqaUBKTNV-1" source="48" target="55">
                    <mxGeometry relative="1" as="geometry">
                        <mxPoint x="350" y="1314" as="sourcePoint"/>
                    </mxGeometry>
                </mxCell>
                <mxCell id="54" style="edgeStyle=orthogonalEdgeStyle;rounded=0;orthogonalLoop=1;jettySize=auto;html=1;exitX=1;exitY=0.75;exitDx=0;exitDy=0;endSize=10;endArrow=block;endFill=0;fontSize=12;entryX=0.5;entryY=1;entryDx=0;entryDy=0;" edge="1" parent="WIyWlLk6GJQsqaUBKTNV-1" source="59" target="80">
                    <mxGeometry relative="1" as="geometry">
                        <mxPoint x="1520" y="1300" as="targetPoint"/>
                        <Array as="points">
                            <mxPoint x="830" y="1553"/>
                            <mxPoint x="1530" y="1553"/>
                        </Array>
                    </mxGeometry>
                </mxCell>
                <mxCell id="55" value="LimiteComputador" style="swimlane;fontStyle=0;align=center;verticalAlign=top;childLayout=stackLayout;horizontal=1;startSize=26;horizontalStack=0;resizeParent=1;resizeLast=0;collapsible=1;marginBottom=0;rounded=0;shadow=0;strokeWidth=1;fontSize=12;" vertex="1" parent="WIyWlLk6GJQsqaUBKTNV-1">
                    <mxGeometry x="660" y="1417" width="170" height="190" as="geometry">
                        <mxRectangle x="230" y="140" width="160" height="26" as="alternateBounds"/>
                    </mxGeometry>
                </mxCell>
                <mxCell id="56" value="" style="line;html=1;strokeWidth=1;align=left;verticalAlign=middle;spacingTop=-1;spacingLeft=3;spacingRight=3;rotatable=0;labelPosition=right;points=[];portConstraint=eastwest;fontSize=12;" vertex="1" parent="55">
                    <mxGeometry y="26" width="170" height="8" as="geometry"/>
                </mxCell>
                <mxCell id="57" value="&lt;span style=&quot;border-color: var(--border-color); font-size: 12px;&quot;&gt;+ &amp;lt;&amp;lt;create&amp;gt;&amp;gt; __init__ (controlador_computadores)&lt;/span&gt;" style="text;html=1;strokeColor=none;fillColor=none;align=left;verticalAlign=middle;whiteSpace=wrap;rounded=0;fontStyle=0;fontSize=12;" vertex="1" parent="55">
                    <mxGeometry y="34" width="170" height="36" as="geometry"/>
                </mxCell>
                <mxCell id="58" value="&lt;span style=&quot;border-color: var(--border-color); font-size: 12px;&quot;&gt;+ recebe_dados_computador&lt;span style=&quot;font-size: 12px;&quot;&gt;()&lt;/span&gt;&lt;/span&gt;" style="text;html=1;strokeColor=none;fillColor=none;align=left;verticalAlign=middle;whiteSpace=wrap;rounded=0;fontStyle=0;fontSize=12;" vertex="1" parent="55">
                    <mxGeometry y="70" width="170" height="30" as="geometry"/>
                </mxCell>
                <mxCell id="59" value="&lt;span style=&quot;border-color: var(--border-color); font-size: 12px;&quot;&gt;+ mostra_dados_computador&lt;span style=&quot;font-size: 12px;&quot;&gt;()&lt;/span&gt;&lt;/span&gt;" style="text;html=1;strokeColor=none;fillColor=none;align=left;verticalAlign=middle;whiteSpace=wrap;rounded=0;fontStyle=0;fontSize=12;" vertex="1" parent="55">
                    <mxGeometry y="100" width="170" height="30" as="geometry"/>
                </mxCell>
                <mxCell id="60" value="&lt;span style=&quot;border-color: var(--border-color); font-size: 12px;&quot;&gt;&lt;span style=&quot;font-size: 12px;&quot;&gt;+ mostra_tela_opcoes()&lt;/span&gt;&lt;/span&gt;" style="text;html=1;strokeColor=none;fillColor=none;align=left;verticalAlign=middle;whiteSpace=wrap;rounded=0;fontStyle=0;fontSize=12;" vertex="1" parent="55">
                    <mxGeometry y="130" width="170" height="30" as="geometry"/>
                </mxCell>
                <mxCell id="61" value="&lt;span style=&quot;border-color: var(--border-color); font-size: 12px;&quot;&gt;&lt;span style=&quot;font-size: 12px;&quot;&gt;+ mostra_estado_garantia()&lt;/span&gt;&lt;/span&gt;" style="text;html=1;strokeColor=none;fillColor=none;align=left;verticalAlign=middle;whiteSpace=wrap;rounded=0;fontStyle=0;fontSize=12;" vertex="1" parent="55">
                    <mxGeometry y="160" width="170" height="30" as="geometry"/>
                </mxCell>
                <mxCell id="62" value="- limite_computador" style="text;html=1;strokeColor=none;fillColor=none;align=left;verticalAlign=middle;whiteSpace=wrap;rounded=0;spacing=2;fontSize=12;" vertex="1" parent="WIyWlLk6GJQsqaUBKTNV-1">
                    <mxGeometry x="750" y="1390" width="110" height="24" as="geometry"/>
                </mxCell>
                <mxCell id="63" value="1" style="text;html=1;align=center;verticalAlign=middle;resizable=0;points=[];autosize=1;strokeColor=none;fillColor=none;fontSize=12;" vertex="1" parent="WIyWlLk6GJQsqaUBKTNV-1">
                    <mxGeometry x="700" y="1390" width="30" height="30" as="geometry"/>
                </mxCell>
                <mxCell id="64" style="edgeStyle=orthogonalEdgeStyle;rounded=0;orthogonalLoop=1;jettySize=auto;html=1;entryX=0;entryY=0.25;entryDx=0;entryDy=0;endArrow=none;endFill=0;endSize=10;startArrow=block;startFill=0;startSize=10;" edge="1" parent="WIyWlLk6GJQsqaUBKTNV-1" source="66" target="118">
                    <mxGeometry relative="1" as="geometry">
                        <Array as="points">
                            <mxPoint x="560" y="688"/>
                            <mxPoint x="560" y="688"/>
                        </Array>
                    </mxGeometry>
                </mxCell>
                <mxCell id="65" style="edgeStyle=orthogonalEdgeStyle;rounded=0;orthogonalLoop=1;jettySize=auto;html=1;exitX=0.5;exitY=0;exitDx=0;exitDy=0;entryX=0;entryY=0.25;entryDx=0;entryDy=0;endArrow=open;endFill=0;endSize=10;" edge="1" parent="WIyWlLk6GJQsqaUBKTNV-1" source="66" target="171">
                    <mxGeometry relative="1" as="geometry"/>
                </mxCell>
                <mxCell id="66" value="Crud" style="swimlane;fontStyle=2;align=center;verticalAlign=top;childLayout=stackLayout;horizontal=1;startSize=30;horizontalStack=0;resizeParent=1;resizeLast=0;collapsible=1;marginBottom=0;rounded=0;shadow=0;strokeWidth=1;fontSize=12;" vertex="1" parent="WIyWlLk6GJQsqaUBKTNV-1">
                    <mxGeometry x="310" y="450" width="180" height="278" as="geometry">
                        <mxRectangle x="230" y="140" width="160" height="26" as="alternateBounds"/>
                    </mxGeometry>
                </mxCell>
                <mxCell id="67" value="&lt;span style=&quot;border-color: var(--border-color); font-size: 12px;&quot;&gt;- dao: DAO&lt;span style=&quot;color: rgba(0, 0, 0, 0); font-family: monospace; font-size: 0px;&quot;&gt;%3CmxGraphModel%3E%3Croot%3E%3CmxCell%20id%3D%220%22%2F%3E%3CmxCell%20id%3D%221%22%20parent%3D%220%22%2F%3E%3CmxCell%20id%3D%222%22%20value%3D%22%26lt%3Bspan%20style%3D%26quot%3Bborder-color%3A%20var(--border-color)%3B%20font-size%3A%2012px%3B%26quot%3B%26gt%3B%2B%20i%26lt%3Bspan%20style%3D%26quot%3Bfont-size%3A%2012px%3B%26quot%3B%26gt%3Bnclui(item%3A%20object)%26lt%3Bbr%20style%3D%26quot%3Bfont-size%3A%2012px%3B%26quot%3B%26gt%3B%26lt%3B%2Fspan%26gt%3B%26lt%3B%2Fspan%26gt%3B%22%20style%3D%22text%3Bhtml%3D1%3BstrokeColor%3Dnone%3BfillColor%3Dnone%3Balign%3Dleft%3BverticalAlign%3Dmiddle%3BwhiteSpace%3Dwrap%3Brounded%3D0%3BfontStyle%3D0%3BfontSize%3D12%3B%22%20vertex%3D%221%22%20parent%3D%221%22%3E%3CmxGeometry%20x%3D%22810%22%20y%3D%221148%22%20width%3D%22190%22%20height%3D%2224%22%20as%3D%22geometry%22%2F%3E%3C%2FmxCell%3E%3C%2Froot%3E%3C%2FmxGraphModel%3E&lt;/span&gt;&lt;span style=&quot;font-size: 12px;&quot;&gt;&lt;br style=&quot;font-size: 12px;&quot;&gt;&lt;/span&gt;&lt;/span&gt;" style="text;html=1;strokeColor=none;fillColor=none;align=left;verticalAlign=middle;whiteSpace=wrap;rounded=0;fontStyle=0;fontSize=12;" vertex="1" parent="66">
                    <mxGeometry y="30" width="180" height="24" as="geometry"/>
                </mxCell>
                <mxCell id="68" value="&lt;span style=&quot;border-color: var(--border-color); font-size: 12px;&quot;&gt;&lt;span style=&quot;font-size: 12px;&quot;&gt;- t: object.type()&lt;br style=&quot;font-size: 12px;&quot;&gt;&lt;/span&gt;&lt;/span&gt;" style="text;html=1;strokeColor=none;fillColor=none;align=left;verticalAlign=middle;whiteSpace=wrap;rounded=0;fontStyle=0;fontSize=12;" vertex="1" parent="66">
                    <mxGeometry y="54" width="180" height="24" as="geometry"/>
                </mxCell>
                <mxCell id="69" value="&lt;span style=&quot;border-color: var(--border-color); font-size: 12px;&quot;&gt;&lt;span style=&quot;font-size: 12px;&quot;&gt;- nome_cp: str&lt;br style=&quot;font-size: 12px;&quot;&gt;&lt;/span&gt;&lt;/span&gt;" style="text;html=1;strokeColor=none;fillColor=none;align=left;verticalAlign=middle;whiteSpace=wrap;rounded=0;fontStyle=0;fontSize=12;" vertex="1" parent="66">
                    <mxGeometry y="78" width="180" height="24" as="geometry"/>
                </mxCell>
                <mxCell id="70" value="" style="line;html=1;strokeWidth=1;align=left;verticalAlign=middle;spacingTop=-1;spacingLeft=3;spacingRight=3;rotatable=0;labelPosition=right;points=[];portConstraint=eastwest;fontSize=12;" vertex="1" parent="66">
                    <mxGeometry y="102" width="180" height="8" as="geometry"/>
                </mxCell>
                <mxCell id="71" value="&lt;span style=&quot;border-color: var(--border-color); font-size: 12px;&quot;&gt;+ i&lt;span style=&quot;font-size: 12px;&quot;&gt;nclui(item: object)&lt;br style=&quot;font-size: 12px;&quot;&gt;&lt;/span&gt;&lt;/span&gt;" style="text;html=1;strokeColor=none;fillColor=none;align=left;verticalAlign=middle;whiteSpace=wrap;rounded=0;fontStyle=0;fontSize=12;" vertex="1" parent="66">
                    <mxGeometry y="110" width="180" height="24" as="geometry"/>
                </mxCell>
                <mxCell id="72" value="&lt;span style=&quot;border-color: var(--border-color); font-size: 12px;&quot;&gt;+ busca&lt;span style=&quot;font-size: 12px;&quot;&gt;(chave_primaria: str)&lt;br style=&quot;font-size: 12px;&quot;&gt;&lt;/span&gt;&lt;/span&gt;" style="text;html=1;strokeColor=none;fillColor=none;align=left;verticalAlign=middle;whiteSpace=wrap;rounded=0;fontStyle=0;fontSize=12;" vertex="1" parent="66">
                    <mxGeometry y="134" width="180" height="24" as="geometry"/>
                </mxCell>
                <mxCell id="73" value="&lt;span style=&quot;border-color: var(--border-color); font-size: 12px;&quot;&gt;+ deleta(chave_primaria: str)&lt;span style=&quot;font-size: 12px;&quot;&gt;&lt;br style=&quot;font-size: 12px;&quot;&gt;&lt;/span&gt;&lt;/span&gt;" style="text;html=1;strokeColor=none;fillColor=none;align=left;verticalAlign=middle;whiteSpace=wrap;rounded=0;fontStyle=0;fontSize=12;" vertex="1" parent="66">
                    <mxGeometry y="158" width="180" height="24" as="geometry"/>
                </mxCell>
                <mxCell id="74" value="&lt;span style=&quot;border-color: var(--border-color); font-size: 12px;&quot;&gt;+ &lt;span style=&quot;font-size: 12px;&quot;&gt;lista()&lt;br style=&quot;font-size: 12px;&quot;&gt;&lt;/span&gt;&lt;/span&gt;" style="text;html=1;strokeColor=none;fillColor=none;align=left;verticalAlign=middle;whiteSpace=wrap;rounded=0;fontStyle=0;fontSize=12;" vertex="1" parent="66">
                    <mxGeometry y="182" width="180" height="24" as="geometry"/>
                </mxCell>
                <mxCell id="75" value="&lt;span style=&quot;border-color: var(--border-color); font-size: 12px;&quot;&gt;&lt;i&gt;+ r&lt;/i&gt;&lt;span style=&quot;font-size: 12px;&quot;&gt;&lt;i&gt;etorna()&lt;/i&gt;&lt;br style=&quot;font-size: 12px;&quot;&gt;&lt;/span&gt;&lt;/span&gt;" style="text;html=1;strokeColor=none;fillColor=none;align=left;verticalAlign=middle;whiteSpace=wrap;rounded=0;fontStyle=0;fontSize=12;" vertex="1" parent="66">
                    <mxGeometry y="206" width="180" height="24" as="geometry"/>
                </mxCell>
                <mxCell id="76" value="&lt;span style=&quot;border-color: var(--border-color); font-size: 12px;&quot;&gt;&lt;i&gt;+ &lt;/i&gt;&lt;span style=&quot;font-size: 12px;&quot;&gt;&lt;i&gt;abre_tela()&lt;/i&gt;&lt;br style=&quot;font-size: 12px;&quot;&gt;&lt;/span&gt;&lt;/span&gt;" style="text;html=1;strokeColor=none;fillColor=none;align=left;verticalAlign=middle;whiteSpace=wrap;rounded=0;fontStyle=0;fontSize=12;" vertex="1" parent="66">
                    <mxGeometry y="230" width="180" height="24" as="geometry"/>
                </mxCell>
                <mxCell id="77" value="&lt;span style=&quot;border-color: var(--border-color); font-size: 12px;&quot;&gt;&lt;i&gt;+ &lt;/i&gt;&lt;span style=&quot;font-size: 12px;&quot;&gt;&lt;i&gt;abre_tela()&lt;/i&gt;&lt;br style=&quot;font-size: 12px;&quot;&gt;&lt;/span&gt;&lt;/span&gt;" style="text;html=1;strokeColor=none;fillColor=none;align=left;verticalAlign=middle;whiteSpace=wrap;rounded=0;fontStyle=0;fontSize=12;" vertex="1" parent="66">
                    <mxGeometry y="254" width="180" height="24" as="geometry"/>
                </mxCell>
                <mxCell id="78" value="&lt;font style=&quot;font-size: 12px;&quot;&gt;- controlador_computadores&lt;/font&gt;" style="text;html=1;strokeColor=none;fillColor=none;align=left;verticalAlign=middle;whiteSpace=wrap;rounded=0;spacing=2;fontSize=12;" vertex="1" parent="WIyWlLk6GJQsqaUBKTNV-1">
                    <mxGeometry x="380" y="1440" width="170" height="24" as="geometry"/>
                </mxCell>
                <mxCell id="79" value="1" style="text;html=1;align=center;verticalAlign=middle;resizable=0;points=[];autosize=1;strokeColor=none;fillColor=none;fontSize=12;" vertex="1" parent="WIyWlLk6GJQsqaUBKTNV-1">
                    <mxGeometry x="340" y="1430" width="30" height="30" as="geometry"/>
                </mxCell>
                <mxCell id="80" value="LimitePSG" style="swimlane;fontStyle=2;align=center;verticalAlign=top;childLayout=stackLayout;horizontal=1;startSize=30;horizontalStack=0;resizeParent=1;resizeLast=0;collapsible=1;marginBottom=0;rounded=0;shadow=0;strokeWidth=1;fontSize=12;" vertex="1" parent="WIyWlLk6GJQsqaUBKTNV-1">
                    <mxGeometry x="1450" y="1160" width="160" height="206" as="geometry">
                        <mxRectangle x="230" y="140" width="160" height="26" as="alternateBounds"/>
                    </mxGeometry>
                </mxCell>
                <mxCell id="81" value="&lt;span style=&quot;border-color: var(--border-color); font-size: 12px;&quot;&gt;&lt;i style=&quot;font-size: 12px;&quot;&gt;+ &amp;lt;&amp;lt;create&amp;gt;&amp;gt; __init__ ()&lt;/i&gt;&lt;/span&gt;" style="text;html=1;strokeColor=none;fillColor=none;align=left;verticalAlign=middle;whiteSpace=wrap;rounded=0;fontStyle=0;fontSize=12;" vertex="1" parent="80">
                    <mxGeometry y="30" width="160" height="26" as="geometry"/>
                </mxCell>
                <mxCell id="82" value="&lt;span style=&quot;border-color: var(--border-color); font-size: 12px;&quot;&gt;+ &lt;span style=&quot;font-size: 12px;&quot;&gt;valida_entrada_opcao()&lt;/span&gt;&lt;/span&gt;" style="text;html=1;strokeColor=none;fillColor=none;align=left;verticalAlign=middle;whiteSpace=wrap;rounded=0;fontStyle=0;fontSize=12;" vertex="1" parent="80">
                    <mxGeometry y="56" width="160" height="30" as="geometry"/>
                </mxCell>
                <mxCell id="83" value="&lt;span style=&quot;border-color: var(--border-color); font-size: 12px;&quot;&gt;+ &lt;span style=&quot;font-size: 12px;&quot;&gt;exibe_mensagem()&lt;/span&gt;&lt;/span&gt;" style="text;html=1;strokeColor=none;fillColor=none;align=left;verticalAlign=middle;whiteSpace=wrap;rounded=0;fontStyle=0;fontSize=12;" vertex="1" parent="80">
                    <mxGeometry y="86" width="160" height="30" as="geometry"/>
                </mxCell>
                <mxCell id="84" value="&lt;span style=&quot;border-color: var(--border-color); font-size: 12px;&quot;&gt;+ recebe_opcao()&lt;/span&gt;" style="text;html=1;strokeColor=none;fillColor=none;align=left;verticalAlign=middle;whiteSpace=wrap;rounded=0;fontStyle=0;fontSize=12;" vertex="1" parent="80">
                    <mxGeometry y="116" width="160" height="30" as="geometry"/>
                </mxCell>
                <mxCell id="85" value="&lt;span style=&quot;border-color: var(--border-color); font-size: 12px;&quot;&gt;&lt;i style=&quot;font-size: 12px;&quot;&gt;+ mostra_tela_opcoes()&lt;/i&gt;&lt;/span&gt;" style="text;html=1;strokeColor=none;fillColor=none;align=left;verticalAlign=middle;whiteSpace=wrap;rounded=0;fontStyle=0;fontSize=12;" vertex="1" parent="80">
                    <mxGeometry y="146" width="160" height="30" as="geometry"/>
                </mxCell>
                <mxCell id="86" style="edgeStyle=orthogonalEdgeStyle;rounded=0;orthogonalLoop=1;jettySize=auto;html=1;startArrow=open;startFill=0;endArrow=open;endFill=0;endSize=10;startSize=10;fontSize=12;entryX=0.144;entryY=-0.01;entryDx=0;entryDy=0;entryPerimeter=0;exitX=1;exitY=0.25;exitDx=0;exitDy=0;" edge="1" parent="WIyWlLk6GJQsqaUBKTNV-1" source="91" target="142">
                    <mxGeometry relative="1" as="geometry">
                        <mxPoint x="2220" y="1150" as="targetPoint"/>
                        <Array as="points">
                            <mxPoint x="1770" y="880"/>
                            <mxPoint x="1770" y="886"/>
                            <mxPoint x="2253" y="886"/>
                        </Array>
                        <mxPoint x="1680" y="1010" as="sourcePoint"/>
                    </mxGeometry>
                </mxCell>
                <mxCell id="87" value="ControladorFuncionario" style="swimlane;fontStyle=0;align=center;verticalAlign=top;childLayout=stackLayout;horizontal=1;startSize=26;horizontalStack=0;resizeParent=1;resizeLast=0;collapsible=1;marginBottom=0;rounded=0;shadow=0;strokeWidth=1;fontSize=12;" vertex="1" parent="WIyWlLk6GJQsqaUBKTNV-1">
                    <mxGeometry x="1510" y="790" width="170" height="252" as="geometry">
                        <mxRectangle x="230" y="140" width="160" height="26" as="alternateBounds"/>
                    </mxGeometry>
                </mxCell>
                <mxCell id="88" value="&lt;span style=&quot;border-color: var(--border-color); font-size: 12px;&quot;&gt;+ excluir_lote_funcionarios&lt;span style=&quot;font-size: 12px;&quot;&gt;()&lt;br style=&quot;font-size: 12px;&quot;&gt;&lt;/span&gt;&lt;/span&gt;" style="text;html=1;strokeColor=none;fillColor=none;align=left;verticalAlign=middle;whiteSpace=wrap;rounded=0;fontStyle=0;fontSize=12;" vertex="1" parent="87">
                    <mxGeometry y="26" width="170" height="24" as="geometry"/>
                </mxCell>
                <mxCell id="89" value="" style="line;html=1;strokeWidth=1;align=left;verticalAlign=middle;spacingTop=-1;spacingLeft=3;spacingRight=3;rotatable=0;labelPosition=right;points=[];portConstraint=eastwest;fontSize=12;" vertex="1" parent="87">
                    <mxGeometry y="50" width="170" height="8" as="geometry"/>
                </mxCell>
                <mxCell id="90" value="&lt;span style=&quot;border-color: var(--border-color); font-size: 12px;&quot;&gt;+ &amp;lt;&amp;lt;create&amp;gt;&amp;gt; __init__ (controlador_sistema)&lt;/span&gt;" style="text;html=1;strokeColor=none;fillColor=none;align=left;verticalAlign=middle;whiteSpace=wrap;rounded=0;fontStyle=0;fontSize=12;" vertex="1" parent="87">
                    <mxGeometry y="58" width="170" height="26" as="geometry"/>
                </mxCell>
                <mxCell id="91" value="&lt;span style=&quot;border-color: var(--border-color); font-size: 12px;&quot;&gt;+ inclui&lt;span style=&quot;font-size: 12px;&quot;&gt;()&lt;br style=&quot;font-size: 12px;&quot;&gt;&lt;/span&gt;&lt;/span&gt;" style="text;html=1;strokeColor=none;fillColor=none;align=left;verticalAlign=middle;whiteSpace=wrap;rounded=0;fontStyle=0;fontSize=12;" vertex="1" parent="87">
                    <mxGeometry y="84" width="170" height="24" as="geometry"/>
                </mxCell>
                <mxCell id="92" value="&lt;span style=&quot;border-color: var(--border-color); font-size: 12px;&quot;&gt;+ altera&lt;span style=&quot;font-size: 12px;&quot;&gt;()&lt;br style=&quot;font-size: 12px;&quot;&gt;&lt;/span&gt;&lt;/span&gt;" style="text;html=1;strokeColor=none;fillColor=none;align=left;verticalAlign=middle;whiteSpace=wrap;rounded=0;fontStyle=0;fontSize=12;" vertex="1" parent="87">
                    <mxGeometry y="108" width="170" height="24" as="geometry"/>
                </mxCell>
                <mxCell id="93" value="&lt;span style=&quot;border-color: var(--border-color); font-size: 12px;&quot;&gt;+ deleta&lt;span style=&quot;font-size: 12px;&quot;&gt;()&lt;br style=&quot;font-size: 12px;&quot;&gt;&lt;/span&gt;&lt;/span&gt;" style="text;html=1;strokeColor=none;fillColor=none;align=left;verticalAlign=middle;whiteSpace=wrap;rounded=0;fontStyle=0;fontSize=12;" vertex="1" parent="87">
                    <mxGeometry y="132" width="170" height="24" as="geometry"/>
                </mxCell>
                <mxCell id="94" value="&lt;span style=&quot;border-color: var(--border-color); font-size: 12px;&quot;&gt;+ valores_dos_objetos&lt;span style=&quot;font-size: 12px;&quot;&gt;(lista)&lt;br style=&quot;font-size: 12px;&quot;&gt;&lt;/span&gt;&lt;/span&gt;" style="text;html=1;strokeColor=none;fillColor=none;align=left;verticalAlign=middle;whiteSpace=wrap;rounded=0;fontStyle=0;fontSize=12;" vertex="1" parent="87">
                    <mxGeometry y="156" width="170" height="24" as="geometry"/>
                </mxCell>
                <mxCell id="95" value="&lt;span style=&quot;border-color: var(--border-color); font-size: 12px;&quot;&gt;+&amp;nbsp;lista&lt;/span&gt;&lt;span style=&quot;background-color: initial;&quot;&gt;()&lt;/span&gt;" style="text;html=1;strokeColor=none;fillColor=none;align=left;verticalAlign=middle;whiteSpace=wrap;rounded=0;fontStyle=0;fontSize=12;" vertex="1" parent="87">
                    <mxGeometry y="180" width="170" height="24" as="geometry"/>
                </mxCell>
                <mxCell id="96" value="&lt;span style=&quot;border-color: var(--border-color); font-size: 12px;&quot;&gt;+ retorna&lt;span style=&quot;font-size: 12px;&quot;&gt;()&lt;br style=&quot;font-size: 12px;&quot;&gt;&lt;/span&gt;&lt;/span&gt;" style="text;html=1;strokeColor=none;fillColor=none;align=left;verticalAlign=middle;whiteSpace=wrap;rounded=0;fontStyle=0;fontSize=12;" vertex="1" parent="87">
                    <mxGeometry y="204" width="170" height="24" as="geometry"/>
                </mxCell>
                <mxCell id="97" value="&lt;span style=&quot;border-color: var(--border-color); font-size: 12px;&quot;&gt;+ abre_tela&lt;span style=&quot;font-size: 12px;&quot;&gt;()&lt;br style=&quot;font-size: 12px;&quot;&gt;&lt;/span&gt;&lt;/span&gt;" style="text;html=1;strokeColor=none;fillColor=none;align=left;verticalAlign=middle;whiteSpace=wrap;rounded=0;fontStyle=0;fontSize=12;" vertex="1" parent="87">
                    <mxGeometry y="228" width="170" height="24" as="geometry"/>
                </mxCell>
                <mxCell id="98" style="edgeStyle=orthogonalEdgeStyle;rounded=0;orthogonalLoop=1;jettySize=auto;html=1;exitX=1;exitY=0.5;exitDx=0;exitDy=0;entryX=0;entryY=0.25;entryDx=0;entryDy=0;endArrow=none;endFill=0;startArrow=open;startFill=0;endSize=10;startSize=10;fontSize=12;" edge="1" parent="WIyWlLk6GJQsqaUBKTNV-1" source="12" target="97">
                    <mxGeometry relative="1" as="geometry">
                        <mxPoint x="1484" y="669.5" as="targetPoint"/>
                    </mxGeometry>
                </mxCell>
                <mxCell id="99" value="- funcionarios" style="text;html=1;strokeColor=none;fillColor=none;align=left;verticalAlign=middle;whiteSpace=wrap;rounded=0;spacing=2;fontSize=12;" vertex="1" parent="WIyWlLk6GJQsqaUBKTNV-1">
                    <mxGeometry x="1370" y="880" width="79.5" height="24" as="geometry"/>
                </mxCell>
                <mxCell id="100" value="*" style="text;html=1;align=center;verticalAlign=middle;resizable=0;points=[];autosize=1;strokeColor=none;fillColor=none;rotation=90;fontSize=12;" vertex="1" parent="WIyWlLk6GJQsqaUBKTNV-1">
                    <mxGeometry x="1360" y="920" width="30" height="30" as="geometry"/>
                </mxCell>
                <mxCell id="101" value="LimiteFuncionario" style="swimlane;fontStyle=0;align=center;verticalAlign=top;childLayout=stackLayout;horizontal=1;startSize=26;horizontalStack=0;resizeParent=1;resizeLast=0;collapsible=1;marginBottom=0;rounded=0;shadow=0;strokeWidth=1;fontSize=12;" vertex="1" parent="WIyWlLk6GJQsqaUBKTNV-1">
                    <mxGeometry x="1820" y="980" width="230" height="190" as="geometry">
                        <mxRectangle x="230" y="140" width="160" height="26" as="alternateBounds"/>
                    </mxGeometry>
                </mxCell>
                <mxCell id="102" value="" style="line;html=1;strokeWidth=1;align=left;verticalAlign=middle;spacingTop=-1;spacingLeft=3;spacingRight=3;rotatable=0;labelPosition=right;points=[];portConstraint=eastwest;fontSize=12;" vertex="1" parent="101">
                    <mxGeometry y="26" width="230" height="8" as="geometry"/>
                </mxCell>
                <mxCell id="103" value="&lt;span style=&quot;border-color: var(--border-color); font-size: 12px;&quot;&gt;+ &amp;lt;&amp;lt;create&amp;gt;&amp;gt; __init__ (controlador_funcionarios)&lt;/span&gt;" style="text;html=1;strokeColor=none;fillColor=none;align=left;verticalAlign=middle;whiteSpace=wrap;rounded=0;fontStyle=0;fontSize=12;" vertex="1" parent="101">
                    <mxGeometry y="34" width="230" height="36" as="geometry"/>
                </mxCell>
                <mxCell id="104" value="&lt;span style=&quot;border-color: var(--border-color); font-size: 12px;&quot;&gt;+ recebe_dados_funcionario&lt;span style=&quot;font-size: 12px;&quot;&gt;()&lt;/span&gt;&lt;/span&gt;" style="text;html=1;strokeColor=none;fillColor=none;align=left;verticalAlign=middle;whiteSpace=wrap;rounded=0;fontStyle=0;fontSize=12;" vertex="1" parent="101">
                    <mxGeometry y="70" width="230" height="30" as="geometry"/>
                </mxCell>
                <mxCell id="105" value="&lt;span style=&quot;border-color: var(--border-color); font-size: 12px;&quot;&gt;+ &lt;span style=&quot;font-size: 12px;&quot;&gt;valida_entrada_opcao()&lt;/span&gt;&lt;/span&gt;" style="text;html=1;strokeColor=none;fillColor=none;align=left;verticalAlign=middle;whiteSpace=wrap;rounded=0;fontStyle=0;fontSize=12;" vertex="1" parent="101">
                    <mxGeometry y="100" width="230" height="30" as="geometry"/>
                </mxCell>
                <mxCell id="106" value="&lt;span style=&quot;border-color: var(--border-color); font-size: 12px;&quot;&gt;&lt;span style=&quot;font-size: 12px;&quot;&gt;+ mostra_tela_opcoes()&lt;/span&gt;&lt;/span&gt;" style="text;html=1;strokeColor=none;fillColor=none;align=left;verticalAlign=middle;whiteSpace=wrap;rounded=0;fontStyle=0;fontSize=12;" vertex="1" parent="101">
                    <mxGeometry y="130" width="230" height="30" as="geometry"/>
                </mxCell>
                <mxCell id="107" value="&lt;span style=&quot;border-color: var(--border-color); font-size: 12px;&quot;&gt;&lt;span style=&quot;font-size: 12px;&quot;&gt;+ mostra_funcionarios()&lt;/span&gt;&lt;/span&gt;" style="text;html=1;strokeColor=none;fillColor=none;align=left;verticalAlign=middle;whiteSpace=wrap;rounded=0;fontStyle=0;fontSize=12;" vertex="1" parent="101">
                    <mxGeometry y="160" width="230" height="30" as="geometry"/>
                </mxCell>
                <mxCell id="108" style="edgeStyle=orthogonalEdgeStyle;rounded=0;orthogonalLoop=1;jettySize=auto;html=1;exitX=0.5;exitY=1;exitDx=0;exitDy=0;endArrow=open;endFill=0;startArrow=none;startFill=0;endSize=10;startSize=10;fontSize=12;" edge="1" parent="WIyWlLk6GJQsqaUBKTNV-1" source="87">
                    <mxGeometry relative="1" as="geometry">
                        <mxPoint x="1654" y="663" as="sourcePoint"/>
                        <mxPoint x="1820" y="1070" as="targetPoint"/>
                        <Array as="points">
                            <mxPoint x="1595" y="1070"/>
                            <mxPoint x="1820" y="1070"/>
                        </Array>
                    </mxGeometry>
                </mxCell>
                <mxCell id="109" value="- limite_funcionario" style="text;html=1;strokeColor=none;fillColor=none;align=left;verticalAlign=middle;whiteSpace=wrap;rounded=0;spacing=2;fontSize=12;" vertex="1" parent="WIyWlLk6GJQsqaUBKTNV-1">
                    <mxGeometry x="1710" y="1040" width="109" height="24" as="geometry"/>
                </mxCell>
                <mxCell id="110" value="1" style="text;html=1;align=center;verticalAlign=middle;resizable=0;points=[];autosize=1;strokeColor=none;fillColor=none;fontSize=12;" vertex="1" parent="WIyWlLk6GJQsqaUBKTNV-1">
                    <mxGeometry x="1790" y="1080" width="30" height="30" as="geometry"/>
                </mxCell>
                <mxCell id="111" style="edgeStyle=orthogonalEdgeStyle;rounded=0;orthogonalLoop=1;jettySize=auto;html=1;endArrow=block;endFill=0;endSize=10;exitX=0.5;exitY=1;exitDx=0;exitDy=0;fontSize=12;entryX=1;entryY=0.75;entryDx=0;entryDy=0;" edge="1" parent="WIyWlLk6GJQsqaUBKTNV-1" target="82">
                    <mxGeometry relative="1" as="geometry">
                        <mxPoint x="1925" y="1170" as="sourcePoint"/>
                        <mxPoint x="1660" y="1240" as="targetPoint"/>
                        <Array as="points">
                            <mxPoint x="1925" y="1239"/>
                        </Array>
                    </mxGeometry>
                </mxCell>
                <mxCell id="112" value="ControladorEmprestimos" style="swimlane;fontStyle=0;align=center;verticalAlign=top;childLayout=stackLayout;horizontal=1;startSize=26;horizontalStack=0;resizeParent=1;resizeLast=0;collapsible=1;marginBottom=0;rounded=0;shadow=0;strokeWidth=1;fontSize=12;" vertex="1" parent="WIyWlLk6GJQsqaUBKTNV-1">
                    <mxGeometry x="600" y="590" width="220" height="410" as="geometry">
                        <mxRectangle x="230" y="140" width="160" height="26" as="alternateBounds"/>
                    </mxGeometry>
                </mxCell>
                <mxCell id="113" value="- dao_funcionario" style="text;html=1;strokeColor=none;fillColor=none;align=left;verticalAlign=middle;whiteSpace=wrap;rounded=0;spacing=2;fontSize=12;" vertex="1" parent="112">
                    <mxGeometry y="26" width="220" height="24" as="geometry"/>
                </mxCell>
                <mxCell id="114" value="- dao_computador" style="text;html=1;strokeColor=none;fillColor=none;align=left;verticalAlign=middle;whiteSpace=wrap;rounded=0;spacing=2;fontSize=12;" vertex="1" parent="112">
                    <mxGeometry y="50" width="220" height="24" as="geometry"/>
                </mxCell>
                <mxCell id="115" value="" style="line;html=1;strokeWidth=1;align=left;verticalAlign=middle;spacingTop=-1;spacingLeft=3;spacingRight=3;rotatable=0;labelPosition=right;points=[];portConstraint=eastwest;fontSize=12;" vertex="1" parent="112">
                    <mxGeometry y="74" width="220" height="8" as="geometry"/>
                </mxCell>
                <mxCell id="116" value="&lt;span style=&quot;border-color: var(--border-color); font-size: 12px;&quot;&gt;+ &amp;lt;&amp;lt;create&amp;gt;&amp;gt; __init__ (controlador_sistema)&lt;/span&gt;" style="text;html=1;strokeColor=none;fillColor=none;align=left;verticalAlign=middle;whiteSpace=wrap;rounded=0;fontStyle=0;fontSize=12;" vertex="1" parent="112">
                    <mxGeometry y="82" width="220" height="26" as="geometry"/>
                </mxCell>
                <mxCell id="117" value="&lt;span style=&quot;border-color: var(--border-color); font-size: 12px;&quot;&gt;+ inclui()&lt;br style=&quot;font-size: 12px;&quot;&gt;&lt;/span&gt;" style="text;html=1;strokeColor=none;fillColor=none;align=left;verticalAlign=middle;whiteSpace=wrap;rounded=0;fontStyle=0;fontSize=12;" vertex="1" parent="112">
                    <mxGeometry y="108" width="220" height="30" as="geometry"/>
                </mxCell>
                <mxCell id="118" value="&lt;span style=&quot;border-color: var(--border-color); font-size: 12px;&quot;&gt;+ finalizar_emprestimo()&lt;br style=&quot;font-size: 12px;&quot;&gt;&lt;/span&gt;" style="text;html=1;strokeColor=none;fillColor=none;align=left;verticalAlign=middle;whiteSpace=wrap;rounded=0;fontStyle=0;fontSize=12;" vertex="1" parent="112">
                    <mxGeometry y="138" width="220" height="30" as="geometry"/>
                </mxCell>
                <mxCell id="119" value="&lt;span style=&quot;border-color: var(--border-color); font-size: 12px;&quot;&gt;+ lista()&lt;br style=&quot;font-size: 12px;&quot;&gt;&lt;/span&gt;" style="text;html=1;strokeColor=none;fillColor=none;align=left;verticalAlign=middle;whiteSpace=wrap;rounded=0;fontStyle=0;fontSize=12;" vertex="1" parent="112">
                    <mxGeometry y="168" width="220" height="30" as="geometry"/>
                </mxCell>
                <mxCell id="120" value="&lt;span style=&quot;border-color: var(--border-color); font-size: 12px;&quot;&gt;+ valores_dos_objetos(lista_de_objetos)&lt;br style=&quot;font-size: 12px;&quot;&gt;&lt;/span&gt;" style="text;html=1;strokeColor=none;fillColor=none;align=left;verticalAlign=middle;whiteSpace=wrap;rounded=0;fontStyle=0;fontSize=12;" vertex="1" parent="112">
                    <mxGeometry y="198" width="220" height="30" as="geometry"/>
                </mxCell>
                <mxCell id="121" value="&lt;span style=&quot;border-color: var(--border-color); font-size: 12px;&quot;&gt;+ retorna()&lt;br style=&quot;font-size: 12px;&quot;&gt;&lt;/span&gt;" style="text;html=1;strokeColor=none;fillColor=none;align=left;verticalAlign=middle;whiteSpace=wrap;rounded=0;fontStyle=0;fontSize=12;" vertex="1" parent="112">
                    <mxGeometry y="228" width="220" height="30" as="geometry"/>
                </mxCell>
                <mxCell id="122" value="&lt;span style=&quot;border-color: var(--border-color); font-size: 12px;&quot;&gt;+ abre_tela()&lt;br style=&quot;font-size: 12px;&quot;&gt;&lt;/span&gt;" style="text;html=1;strokeColor=none;fillColor=none;align=left;verticalAlign=middle;whiteSpace=wrap;rounded=0;fontStyle=0;fontSize=12;" vertex="1" parent="112">
                    <mxGeometry y="258" width="220" height="30" as="geometry"/>
                </mxCell>
                <mxCell id="123" value="&lt;span style=&quot;border-color: var(--border-color); font-size: 12px;&quot;&gt;+&amp;nbsp;monta_colunas_tabela&lt;/span&gt;&lt;span style=&quot;background-color: initial;&quot;&gt;(lista_de_objetos)&lt;/span&gt;" style="text;html=1;strokeColor=none;fillColor=none;align=left;verticalAlign=middle;whiteSpace=wrap;rounded=0;fontStyle=0;fontSize=12;" vertex="1" parent="112">
                    <mxGeometry y="288" width="220" height="30" as="geometry"/>
                </mxCell>
                <mxCell id="124" value="&lt;span style=&quot;border-color: var(--border-color); font-size: 12px;&quot;&gt;+&amp;nbsp;funcionarios_com_itens&lt;/span&gt;&lt;span style=&quot;background-color: initial;&quot;&gt;()&lt;/span&gt;" style="text;html=1;strokeColor=none;fillColor=none;align=left;verticalAlign=middle;whiteSpace=wrap;rounded=0;fontStyle=0;fontSize=12;" vertex="1" parent="112">
                    <mxGeometry y="318" width="220" height="30" as="geometry"/>
                </mxCell>
                <mxCell id="125" value="&lt;span style=&quot;border-color: var(--border-color); font-size: 12px;&quot;&gt;+&amp;nbsp;historico&lt;/span&gt;&lt;span style=&quot;background-color: initial;&quot;&gt;()&lt;/span&gt;" style="text;html=1;strokeColor=none;fillColor=none;align=left;verticalAlign=middle;whiteSpace=wrap;rounded=0;fontStyle=0;fontSize=12;" vertex="1" parent="112">
                    <mxGeometry y="348" width="220" height="30" as="geometry"/>
                </mxCell>
                <mxCell id="126" value="&lt;span style=&quot;border-color: var(--border-color); font-size: 12px;&quot;&gt;+ esta_emprestado()&lt;br style=&quot;font-size: 12px;&quot;&gt;&lt;/span&gt;" style="text;html=1;strokeColor=none;fillColor=none;align=left;verticalAlign=middle;whiteSpace=wrap;rounded=0;fontStyle=0;fontSize=12;" vertex="1" parent="112">
                    <mxGeometry y="378" width="220" height="32" as="geometry"/>
                </mxCell>
                <mxCell id="127" style="edgeStyle=orthogonalEdgeStyle;rounded=0;orthogonalLoop=1;jettySize=auto;html=1;endSize=10;endArrow=open;endFill=0;fontSize=12;entryX=0.5;entryY=0;entryDx=0;entryDy=0;exitX=1;exitY=0.5;exitDx=0;exitDy=0;" edge="1" parent="WIyWlLk6GJQsqaUBKTNV-1" source="118" target="18">
                    <mxGeometry relative="1" as="geometry">
                        <mxPoint x="893" y="827" as="targetPoint"/>
                        <Array as="points">
                            <mxPoint x="820" y="730"/>
                            <mxPoint x="955" y="730"/>
                        </Array>
                        <mxPoint x="980" y="910" as="sourcePoint"/>
                    </mxGeometry>
                </mxCell>
                <mxCell id="128" value="- emprestimos" style="text;html=1;strokeColor=none;fillColor=none;align=left;verticalAlign=middle;whiteSpace=wrap;rounded=0;spacing=2;fontSize=12;" vertex="1" parent="WIyWlLk6GJQsqaUBKTNV-1">
                    <mxGeometry x="960" y="760" width="79.5" height="24" as="geometry"/>
                </mxCell>
                <mxCell id="129" value="*" style="text;html=1;align=center;verticalAlign=middle;resizable=0;points=[];autosize=1;strokeColor=none;fillColor=none;rotation=90;fontSize=12;" vertex="1" parent="WIyWlLk6GJQsqaUBKTNV-1">
                    <mxGeometry x="920" y="760" width="30" height="30" as="geometry"/>
                </mxCell>
                <mxCell id="130" value="LimiteEmprestimo" style="swimlane;fontStyle=0;align=center;verticalAlign=top;childLayout=stackLayout;horizontal=1;startSize=26;horizontalStack=0;resizeParent=1;resizeLast=0;collapsible=1;marginBottom=0;rounded=0;shadow=0;strokeWidth=1;fontSize=12;" vertex="1" parent="WIyWlLk6GJQsqaUBKTNV-1">
                    <mxGeometry x="1070" y="1120" width="190" height="190" as="geometry">
                        <mxRectangle x="230" y="140" width="160" height="26" as="alternateBounds"/>
                    </mxGeometry>
                </mxCell>
                <mxCell id="131" value="" style="line;html=1;strokeWidth=1;align=left;verticalAlign=middle;spacingTop=-1;spacingLeft=3;spacingRight=3;rotatable=0;labelPosition=right;points=[];portConstraint=eastwest;fontSize=12;" vertex="1" parent="130">
                    <mxGeometry y="26" width="190" height="8" as="geometry"/>
                </mxCell>
                <mxCell id="132" value="&lt;span style=&quot;border-color: var(--border-color); font-size: 12px;&quot;&gt;+ &amp;lt;&amp;lt;create&amp;gt;&amp;gt; __init__ (controlador_emprestimos)&lt;/span&gt;" style="text;html=1;strokeColor=none;fillColor=none;align=left;verticalAlign=middle;whiteSpace=wrap;rounded=0;fontStyle=0;fontSize=12;" vertex="1" parent="130">
                    <mxGeometry y="34" width="190" height="36" as="geometry"/>
                </mxCell>
                <mxCell id="133" value="&lt;span style=&quot;border-color: var(--border-color); font-size: 12px;&quot;&gt;&lt;span style=&quot;font-size: 12px;&quot;&gt;+ mostra_tela_opcoes()&lt;/span&gt;&lt;/span&gt;" style="text;html=1;strokeColor=none;fillColor=none;align=left;verticalAlign=middle;whiteSpace=wrap;rounded=0;fontStyle=0;fontSize=12;" vertex="1" parent="130">
                    <mxGeometry y="70" width="190" height="30" as="geometry"/>
                </mxCell>
                <mxCell id="134" value="&lt;span style=&quot;border-color: var(--border-color); font-size: 12px;&quot;&gt;&lt;span style=&quot;font-size: 12px;&quot;&gt;+ mostra_funcionarios_com_itens()&lt;/span&gt;&lt;/span&gt;" style="text;html=1;strokeColor=none;fillColor=none;align=left;verticalAlign=middle;whiteSpace=wrap;rounded=0;fontStyle=0;fontSize=12;" vertex="1" parent="130">
                    <mxGeometry y="100" width="190" height="30" as="geometry"/>
                </mxCell>
                <mxCell id="135" value="&lt;span style=&quot;border-color: var(--border-color); font-size: 12px;&quot;&gt;&lt;span style=&quot;font-size: 12px;&quot;&gt;+ mostra_itens_emprestados()&lt;/span&gt;&lt;/span&gt;" style="text;html=1;strokeColor=none;fillColor=none;align=left;verticalAlign=middle;whiteSpace=wrap;rounded=0;fontStyle=0;fontSize=12;" vertex="1" parent="130">
                    <mxGeometry y="130" width="190" height="30" as="geometry"/>
                </mxCell>
                <mxCell id="136" value="&lt;span style=&quot;border-color: var(--border-color); font-size: 12px;&quot;&gt;&lt;span style=&quot;font-size: 12px;&quot;&gt;+ mostra_historico()&lt;/span&gt;&lt;/span&gt;" style="text;html=1;strokeColor=none;fillColor=none;align=left;verticalAlign=middle;whiteSpace=wrap;rounded=0;fontStyle=0;fontSize=12;" vertex="1" parent="130">
                    <mxGeometry y="160" width="190" height="30" as="geometry"/>
                </mxCell>
                <mxCell id="137" style="edgeStyle=orthogonalEdgeStyle;rounded=0;orthogonalLoop=1;jettySize=auto;html=1;startArrow=open;startFill=0;endArrow=open;endFill=0;endSize=10;startSize=10;fontSize=12;exitX=0.5;exitY=1;exitDx=0;exitDy=0;" edge="1" parent="WIyWlLk6GJQsqaUBKTNV-1" source="126" target="130">
                    <mxGeometry relative="1" as="geometry">
                        <mxPoint x="750" y="751" as="sourcePoint"/>
                        <mxPoint x="1148" y="1065" as="targetPoint"/>
                        <Array as="points">
                            <mxPoint x="710" y="1060"/>
                            <mxPoint x="1148" y="1060"/>
                        </Array>
                    </mxGeometry>
                </mxCell>
                <mxCell id="138" value="- limite_emprestimo" style="text;html=1;strokeColor=none;fillColor=none;align=left;verticalAlign=middle;whiteSpace=wrap;rounded=0;spacing=2;fontSize=12;" vertex="1" parent="WIyWlLk6GJQsqaUBKTNV-1">
                    <mxGeometry x="1150" y="1090" width="123" height="30" as="geometry"/>
                </mxCell>
                <mxCell id="139" value="1" style="text;html=1;align=center;verticalAlign=middle;resizable=0;points=[];autosize=1;strokeColor=none;fillColor=none;fontSize=12;" vertex="1" parent="WIyWlLk6GJQsqaUBKTNV-1">
                    <mxGeometry x="1110" y="1090" width="30" height="30" as="geometry"/>
                </mxCell>
                <mxCell id="140" style="edgeStyle=orthogonalEdgeStyle;rounded=0;orthogonalLoop=1;jettySize=auto;html=1;endArrow=block;endFill=0;endSize=10;fontSize=12;entryX=0;entryY=0.133;entryDx=0;entryDy=0;entryPerimeter=0;" edge="1" parent="WIyWlLk6GJQsqaUBKTNV-1" target="83">
                    <mxGeometry relative="1" as="geometry">
                        <mxPoint x="1260" y="1250" as="sourcePoint"/>
                        <mxPoint x="1480" y="1200" as="targetPoint"/>
                        <Array as="points">
                            <mxPoint x="1260" y="1250"/>
                        </Array>
                    </mxGeometry>
                </mxCell>
                <mxCell id="141" style="edgeStyle=orthogonalEdgeStyle;rounded=0;orthogonalLoop=1;jettySize=auto;html=1;endArrow=open;endFill=0;startArrow=open;startFill=0;endSize=10;startSize=10;fontSize=12;" edge="1" parent="WIyWlLk6GJQsqaUBKTNV-1">
                    <mxGeometry relative="1" as="geometry">
                        <mxPoint x="820" y="645" as="targetPoint"/>
                        <Array as="points">
                            <mxPoint x="2310" y="645"/>
                            <mxPoint x="820" y="645"/>
                        </Array>
                        <mxPoint x="2310" y="1220" as="sourcePoint"/>
                    </mxGeometry>
                </mxCell>
                <mxCell id="142" value="ControladorSistema" style="swimlane;fontStyle=0;align=center;verticalAlign=top;childLayout=stackLayout;horizontal=1;startSize=26;horizontalStack=0;resizeParent=1;resizeLast=0;collapsible=1;marginBottom=0;rounded=0;shadow=0;strokeWidth=1;fontSize=12;" vertex="1" parent="WIyWlLk6GJQsqaUBKTNV-1">
                    <mxGeometry x="2230" y="1220" width="160" height="220" as="geometry">
                        <mxRectangle x="230" y="140" width="160" height="26" as="alternateBounds"/>
                    </mxGeometry>
                </mxCell>
                <mxCell id="143" value="" style="line;html=1;strokeWidth=1;align=left;verticalAlign=middle;spacingTop=-1;spacingLeft=3;spacingRight=3;rotatable=0;labelPosition=right;points=[];portConstraint=eastwest;fontSize=12;" vertex="1" parent="142">
                    <mxGeometry y="26" width="160" height="8" as="geometry"/>
                </mxCell>
                <mxCell id="144" value="&lt;span style=&quot;border-color: var(--border-color); font-size: 12px;&quot;&gt;+ &amp;lt;&amp;lt;create&amp;gt;&amp;gt; __init__ ()&lt;/span&gt;" style="text;html=1;strokeColor=none;fillColor=none;align=left;verticalAlign=middle;whiteSpace=wrap;rounded=0;fontStyle=0;fontSize=12;" vertex="1" parent="142">
                    <mxGeometry y="34" width="160" height="26" as="geometry"/>
                </mxCell>
                <mxCell id="145" value="&lt;span style=&quot;border-color: var(--border-color); font-size: 12px;&quot;&gt;+ abre_tela()&lt;br style=&quot;font-size: 12px;&quot;&gt;&lt;/span&gt;" style="text;html=1;strokeColor=none;fillColor=none;align=left;verticalAlign=middle;whiteSpace=wrap;rounded=0;fontStyle=0;fontSize=12;" vertex="1" parent="142">
                    <mxGeometry y="60" width="160" height="26" as="geometry"/>
                </mxCell>
                <mxCell id="146" value="&lt;span style=&quot;border-color: var(--border-color); font-size: 12px;&quot;&gt;+ dispositivos()&lt;/span&gt;" style="text;html=1;strokeColor=none;fillColor=none;align=left;verticalAlign=middle;whiteSpace=wrap;rounded=0;fontStyle=0;fontSize=12;" vertex="1" parent="142">
                    <mxGeometry y="86" width="160" height="26" as="geometry"/>
                </mxCell>
                <mxCell id="147" value="&lt;span style=&quot;border-color: var(--border-color); font-size: 12px;&quot;&gt;+ emprestimos()&lt;/span&gt;" style="text;html=1;strokeColor=none;fillColor=none;align=left;verticalAlign=middle;whiteSpace=wrap;rounded=0;fontStyle=0;fontSize=12;" vertex="1" parent="142">
                    <mxGeometry y="112" width="160" height="26" as="geometry"/>
                </mxCell>
                <mxCell id="148" value="&lt;span style=&quot;border-color: var(--border-color); font-size: 12px;&quot;&gt;+ funcionarios()&lt;/span&gt;" style="text;html=1;strokeColor=none;fillColor=none;align=left;verticalAlign=middle;whiteSpace=wrap;rounded=0;fontStyle=0;fontSize=12;" vertex="1" parent="142">
                    <mxGeometry y="138" width="160" height="26" as="geometry"/>
                </mxCell>
                <mxCell id="149" value="&lt;span style=&quot;border-color: var(--border-color);&quot;&gt;+ departamentos()&lt;/span&gt;" style="text;html=1;strokeColor=none;fillColor=none;align=left;verticalAlign=middle;whiteSpace=wrap;rounded=0;fontStyle=0;fontSize=12;" vertex="1" parent="142">
                    <mxGeometry y="164" width="160" height="30" as="geometry"/>
                </mxCell>
                <mxCell id="150" value="&lt;span style=&quot;border-color: var(--border-color); font-size: 12px;&quot;&gt;+ sair()&lt;/span&gt;" style="text;html=1;strokeColor=none;fillColor=none;align=left;verticalAlign=middle;whiteSpace=wrap;rounded=0;fontStyle=0;fontSize=12;" vertex="1" parent="142">
                    <mxGeometry y="194" width="160" height="26" as="geometry"/>
                </mxCell>
                <mxCell id="151" value="&lt;font style=&quot;font-size: 12px;&quot;&gt;- controlador_emprestimos&lt;br style=&quot;font-size: 12px;&quot;&gt;&lt;/font&gt;" style="text;html=1;strokeColor=none;fillColor=none;align=left;verticalAlign=middle;whiteSpace=wrap;rounded=0;spacing=2;fontSize=12;" vertex="1" parent="WIyWlLk6GJQsqaUBKTNV-1">
                    <mxGeometry x="820" y="620" width="149.88" height="24" as="geometry"/>
                </mxCell>
                <mxCell id="152" value="1" style="text;html=1;align=center;verticalAlign=middle;resizable=0;points=[];autosize=1;strokeColor=none;fillColor=none;fontSize=12;" vertex="1" parent="WIyWlLk6GJQsqaUBKTNV-1">
                    <mxGeometry x="1170" y="920" width="30" height="30" as="geometry"/>
                </mxCell>
                <mxCell id="153" value="&lt;font style=&quot;font-size: 12px;&quot;&gt;- controlador_funcionarios&lt;br style=&quot;font-size: 12px;&quot;&gt;&lt;/font&gt;" style="text;html=1;strokeColor=none;fillColor=none;align=left;verticalAlign=middle;whiteSpace=wrap;rounded=0;spacing=2;fontSize=12;rotation=1;" vertex="1" parent="WIyWlLk6GJQsqaUBKTNV-1">
                    <mxGeometry x="1680" y="850" width="150" height="24" as="geometry"/>
                </mxCell>
                <mxCell id="154" value="1" style="text;html=1;align=center;verticalAlign=middle;resizable=0;points=[];autosize=1;strokeColor=none;fillColor=none;fontSize=12;" vertex="1" parent="WIyWlLk6GJQsqaUBKTNV-1">
                    <mxGeometry x="1690" y="900" width="30" height="30" as="geometry"/>
                </mxCell>
                <mxCell id="155" style="edgeStyle=orthogonalEdgeStyle;rounded=0;orthogonalLoop=1;jettySize=auto;html=1;endArrow=block;endFill=0;endSize=10;fontSize=12;exitX=0;exitY=0;exitDx=0;exitDy=0;entryX=1;entryY=1;entryDx=0;entryDy=0;" edge="1" parent="WIyWlLk6GJQsqaUBKTNV-1" source="158" target="85">
                    <mxGeometry relative="1" as="geometry">
                        <mxPoint x="1800" y="1290" as="sourcePoint"/>
                        <mxPoint x="1630" y="1350" as="targetPoint"/>
                        <Array as="points">
                            <mxPoint x="1810" y="1336"/>
                        </Array>
                    </mxGeometry>
                </mxCell>
                <mxCell id="156" value="LimiteSistema" style="swimlane;fontStyle=0;align=center;verticalAlign=top;childLayout=stackLayout;horizontal=1;startSize=30;horizontalStack=0;resizeParent=1;resizeLast=0;collapsible=1;marginBottom=0;rounded=0;shadow=0;strokeWidth=1;fontSize=12;fontColor=#000000;" vertex="1" parent="WIyWlLk6GJQsqaUBKTNV-1">
                    <mxGeometry x="1810" y="1280" width="260" height="150" as="geometry">
                        <mxRectangle x="230" y="140" width="160" height="26" as="alternateBounds"/>
                    </mxGeometry>
                </mxCell>
                <mxCell id="157" value="&lt;span style=&quot;border-color: var(--border-color); font-size: 12px;&quot;&gt;&lt;span style=&quot;font-size: 12px;&quot;&gt;+ &amp;lt;&amp;lt;create&amp;gt;&amp;gt; __init__ (controlador_sistema)&lt;/span&gt;&lt;/span&gt;" style="text;html=1;strokeColor=none;fillColor=none;align=left;verticalAlign=middle;whiteSpace=wrap;rounded=0;fontStyle=0;fontSize=12;" vertex="1" parent="156">
                    <mxGeometry y="30" width="260" height="30" as="geometry"/>
                </mxCell>
                <mxCell id="158" value="&lt;span style=&quot;border-color: var(--border-color); font-size: 12px;&quot;&gt;+ &lt;span style=&quot;font-size: 12px;&quot;&gt;valida_entrada_opcao()&lt;/span&gt;&lt;/span&gt;" style="text;html=1;strokeColor=none;fillColor=none;align=left;verticalAlign=middle;whiteSpace=wrap;rounded=0;fontStyle=0;fontSize=12;" vertex="1" parent="156">
                    <mxGeometry y="60" width="260" height="30" as="geometry"/>
                </mxCell>
                <mxCell id="159" value="&lt;span style=&quot;border-color: var(--border-color); font-size: 12px;&quot;&gt;+ recebe_opcao()&lt;/span&gt;" style="text;html=1;strokeColor=none;fillColor=none;align=left;verticalAlign=middle;whiteSpace=wrap;rounded=0;fontStyle=0;fontSize=12;" vertex="1" parent="156">
                    <mxGeometry y="90" width="260" height="30" as="geometry"/>
                </mxCell>
                <mxCell id="160" value="&lt;span style=&quot;border-color: var(--border-color); font-size: 12px;&quot;&gt;&lt;span style=&quot;font-size: 12px;&quot;&gt;+ mostra_tela_opcoes()&lt;/span&gt;&lt;/span&gt;" style="text;html=1;strokeColor=none;fillColor=none;align=left;verticalAlign=middle;whiteSpace=wrap;rounded=0;fontStyle=0;fontSize=12;" vertex="1" parent="156">
                    <mxGeometry y="120" width="260" height="30" as="geometry"/>
                </mxCell>
                <mxCell id="161" style="edgeStyle=orthogonalEdgeStyle;rounded=0;orthogonalLoop=1;jettySize=auto;html=1;entryX=0.999;entryY=0.616;entryDx=0;entryDy=0;endArrow=open;endFill=0;startArrow=open;startFill=0;endSize=10;startSize=10;fontSize=12;entryPerimeter=0;" edge="1" parent="WIyWlLk6GJQsqaUBKTNV-1" target="159">
                    <mxGeometry relative="1" as="geometry">
                        <mxPoint x="2230" y="1388" as="sourcePoint"/>
                        <Array as="points">
                            <mxPoint x="2230" y="1388"/>
                        </Array>
                    </mxGeometry>
                </mxCell>
                <mxCell id="162" value="- limite_sistema" style="text;html=1;strokeColor=none;fillColor=none;align=left;verticalAlign=middle;whiteSpace=wrap;rounded=0;spacing=2;fontSize=12;" vertex="1" parent="WIyWlLk6GJQsqaUBKTNV-1">
                    <mxGeometry x="2080" y="1360" width="93" height="24" as="geometry"/>
                </mxCell>
                <mxCell id="163" value="1" style="text;html=1;align=center;verticalAlign=middle;resizable=0;points=[];autosize=1;strokeColor=none;fillColor=none;fontSize=12;" vertex="1" parent="WIyWlLk6GJQsqaUBKTNV-1">
                    <mxGeometry x="2070" y="1390" width="30" height="30" as="geometry"/>
                </mxCell>
                <mxCell id="164" style="edgeStyle=orthogonalEdgeStyle;rounded=0;orthogonalLoop=1;jettySize=auto;html=1;exitX=0.5;exitY=1;exitDx=0;exitDy=0;" edge="1" parent="WIyWlLk6GJQsqaUBKTNV-1" source="50" target="50">
                    <mxGeometry relative="1" as="geometry"/>
                </mxCell>
                <mxCell id="165" style="edgeStyle=orthogonalEdgeStyle;rounded=0;orthogonalLoop=1;jettySize=auto;html=1;entryX=0.5;entryY=0;entryDx=0;entryDy=0;endArrow=none;endFill=0;strokeWidth=1;endSize=10;jumpStyle=arc;jumpSize=9;startArrow=block;startFill=0;startSize=10;" edge="1" parent="WIyWlLk6GJQsqaUBKTNV-1" source="71" target="87">
                    <mxGeometry relative="1" as="geometry"/>
                </mxCell>
                <mxCell id="166" value="DAO" style="swimlane;fontStyle=2;align=center;verticalAlign=top;childLayout=stackLayout;horizontal=1;startSize=30;horizontalStack=0;resizeParent=1;resizeLast=0;collapsible=1;marginBottom=0;rounded=0;shadow=0;strokeWidth=1;fontSize=12;" vertex="1" parent="WIyWlLk6GJQsqaUBKTNV-1">
                    <mxGeometry x="510" y="60" width="180" height="280" as="geometry">
                        <mxRectangle x="230" y="140" width="160" height="26" as="alternateBounds"/>
                    </mxGeometry>
                </mxCell>
                <mxCell id="167" value="&lt;span style=&quot;border-color: var(--border-color); font-size: 12px;&quot;&gt;&lt;span style=&quot;font-size: 12px;&quot;&gt;- datasource: str&lt;br style=&quot;font-size: 12px;&quot;&gt;&lt;/span&gt;&lt;/span&gt;" style="text;html=1;strokeColor=none;fillColor=none;align=left;verticalAlign=middle;whiteSpace=wrap;rounded=0;fontStyle=0;fontSize=12;" vertex="1" parent="166">
                    <mxGeometry y="30" width="180" height="24" as="geometry"/>
                </mxCell>
                <mxCell id="168" value="&lt;span style=&quot;border-color: var(--border-color); font-size: 12px;&quot;&gt;- cache: list&lt;span style=&quot;color: rgba(0, 0, 0, 0); font-family: monospace; font-size: 0px;&quot;&gt;%3CmxGraphModel%3E%3Croot%3E%3CmxCell%20id%3D%220%22%2F%3E%3CmxCell%20id%3D%221%22%20parent%3D%220%22%2F%3E%3CmxCell%20id%3D%222%22%20value%3D%22%26lt%3Bspan%20style%3D%26quot%3Bborder-color%3A%20var(--border-color)%3B%20font-size%3A%2012px%3B%26quot%3B%26gt%3B%2B%20i%26lt%3Bspan%20style%3D%26quot%3Bfont-size%3A%2012px%3B%26quot%3B%26gt%3Bnclui(item%3A%20object)%26lt%3Bbr%20style%3D%26quot%3Bfont-size%3A%2012px%3B%26quot%3B%26gt%3B%26lt%3B%2Fspan%26gt%3B%26lt%3B%2Fspan%26gt%3B%22%20style%3D%22text%3Bhtml%3D1%3BstrokeColor%3Dnone%3BfillColor%3Dnone%3Balign%3Dleft%3BverticalAlign%3Dmiddle%3BwhiteSpace%3Dwrap%3Brounded%3D0%3BfontStyle%3D0%3BfontSize%3D12%3B%22%20vertex%3D%221%22%20parent%3D%221%22%3E%3CmxGeometry%20x%3D%22810%22%20y%3D%221148%22%20width%3D%22190%22%20height%3D%2224%22%20as%3D%22geometry%22%2F%3E%3C%2FmxCell%3E%3C%2Froot%3E%3C%2FmxGraphModel%3E&lt;/span&gt;&lt;span style=&quot;font-size: 12px;&quot;&gt;&lt;br style=&quot;font-size: 12px;&quot;&gt;&lt;/span&gt;&lt;/span&gt;" style="text;html=1;strokeColor=none;fillColor=none;align=left;verticalAlign=middle;whiteSpace=wrap;rounded=0;fontStyle=0;fontSize=12;" vertex="1" parent="166">
                    <mxGeometry y="54" width="180" height="24" as="geometry"/>
                </mxCell>
                <mxCell id="169" value="&lt;span style=&quot;border-color: var(--border-color); font-size: 12px;&quot;&gt;&lt;span style=&quot;font-size: 12px;&quot;&gt;- pkl_path: str&lt;br style=&quot;font-size: 12px;&quot;&gt;&lt;/span&gt;&lt;/span&gt;" style="text;html=1;strokeColor=none;fillColor=none;align=left;verticalAlign=middle;whiteSpace=wrap;rounded=0;fontStyle=0;fontSize=12;" vertex="1" parent="166">
                    <mxGeometry y="78" width="180" height="24" as="geometry"/>
                </mxCell>
                <mxCell id="170" value="" style="line;html=1;strokeWidth=1;align=left;verticalAlign=middle;spacingTop=-1;spacingLeft=3;spacingRight=3;rotatable=0;labelPosition=right;points=[];portConstraint=eastwest;fontSize=12;" vertex="1" parent="166">
                    <mxGeometry y="102" width="180" height="8" as="geometry"/>
                </mxCell>
                <mxCell id="171" value="&lt;span style=&quot;border-color: var(--border-color); font-size: 12px;&quot;&gt;+ &amp;lt;&amp;lt;create&amp;gt;&amp;gt; __init__ (datasource)&lt;/span&gt;" style="text;html=1;strokeColor=none;fillColor=none;align=left;verticalAlign=middle;whiteSpace=wrap;rounded=0;fontStyle=0;fontSize=12;" vertex="1" parent="166">
                    <mxGeometry y="110" width="180" height="26" as="geometry"/>
                </mxCell>
                <mxCell id="172" value="&lt;span style=&quot;border-color: var(--border-color); font-size: 12px;&quot;&gt;+ setup()&lt;span style=&quot;font-size: 12px;&quot;&gt;&lt;br style=&quot;font-size: 12px;&quot;&gt;&lt;/span&gt;&lt;/span&gt;" style="text;html=1;strokeColor=none;fillColor=none;align=left;verticalAlign=middle;whiteSpace=wrap;rounded=0;fontStyle=0;fontSize=12;" vertex="1" parent="166">
                    <mxGeometry y="136" width="180" height="24" as="geometry"/>
                </mxCell>
                <mxCell id="173" value="&lt;span style=&quot;border-color: var(--border-color); font-size: 12px;&quot;&gt;&lt;span style=&quot;font-size: 12px;&quot;&gt;+ get(key)&lt;br style=&quot;font-size: 12px;&quot;&gt;&lt;/span&gt;&lt;/span&gt;" style="text;html=1;strokeColor=none;fillColor=none;align=left;verticalAlign=middle;whiteSpace=wrap;rounded=0;fontStyle=0;fontSize=12;" vertex="1" parent="166">
                    <mxGeometry y="160" width="180" height="24" as="geometry"/>
                </mxCell>
                <mxCell id="174" value="&lt;span style=&quot;border-color: var(--border-color); font-size: 12px;&quot;&gt;+ get_all()&lt;span style=&quot;font-size: 12px;&quot;&gt;&lt;br style=&quot;font-size: 12px;&quot;&gt;&lt;/span&gt;&lt;/span&gt;" style="text;html=1;strokeColor=none;fillColor=none;align=left;verticalAlign=middle;whiteSpace=wrap;rounded=0;fontStyle=0;fontSize=12;" vertex="1" parent="166">
                    <mxGeometry y="184" width="180" height="24" as="geometry"/>
                </mxCell>
                <mxCell id="175" value="&lt;span style=&quot;border-color: var(--border-color); font-size: 12px;&quot;&gt;+ &lt;span style=&quot;font-size: 12px;&quot;&gt;add(key, value)&lt;br style=&quot;font-size: 12px;&quot;&gt;&lt;/span&gt;&lt;/span&gt;" style="text;html=1;strokeColor=none;fillColor=none;align=left;verticalAlign=middle;whiteSpace=wrap;rounded=0;fontStyle=0;fontSize=12;" vertex="1" parent="166">
                    <mxGeometry y="208" width="180" height="24" as="geometry"/>
                </mxCell>
                <mxCell id="176" value="&lt;span style=&quot;border-color: var(--border-color); font-size: 12px;&quot;&gt;&lt;i&gt;+ remove(key)&lt;/i&gt;&lt;span style=&quot;font-size: 12px;&quot;&gt;&lt;br style=&quot;font-size: 12px;&quot;&gt;&lt;/span&gt;&lt;/span&gt;" style="text;html=1;strokeColor=none;fillColor=none;align=left;verticalAlign=middle;whiteSpace=wrap;rounded=0;fontStyle=0;fontSize=12;" vertex="1" parent="166">
                    <mxGeometry y="232" width="180" height="24" as="geometry"/>
                </mxCell>
                <mxCell id="177" value="&lt;span style=&quot;border-color: var(--border-color); font-size: 12px;&quot;&gt;&lt;i&gt;+ update(key, value)&lt;/i&gt;&lt;span style=&quot;font-size: 12px;&quot;&gt;&lt;br style=&quot;font-size: 12px;&quot;&gt;&lt;/span&gt;&lt;/span&gt;" style="text;html=1;strokeColor=none;fillColor=none;align=left;verticalAlign=middle;whiteSpace=wrap;rounded=0;fontStyle=0;fontSize=12;" vertex="1" parent="166">
                    <mxGeometry y="256" width="180" height="24" as="geometry"/>
                </mxCell>
                <mxCell id="178" style="edgeStyle=orthogonalEdgeStyle;rounded=0;orthogonalLoop=1;jettySize=auto;html=1;exitX=0.5;exitY=0;exitDx=0;exitDy=0;entryX=0.5;entryY=1;entryDx=0;entryDy=0;endArrow=open;endFill=0;endSize=10;" edge="1" parent="WIyWlLk6GJQsqaUBKTNV-1" source="112" target="177">
                    <mxGeometry relative="1" as="geometry">
                        <mxPoint x="630" y="504" as="sourcePoint"/>
                        <mxPoint x="740" y="230" as="targetPoint"/>
                    </mxGeometry>
                </mxCell>
                <mxCell id="179" value="SelecaoNulaException" style="swimlane;fontStyle=2;align=center;verticalAlign=top;childLayout=stackLayout;horizontal=1;startSize=30;horizontalStack=0;resizeParent=1;resizeLast=0;collapsible=1;marginBottom=0;rounded=0;shadow=0;strokeWidth=1;fontSize=12;" vertex="1" parent="WIyWlLk6GJQsqaUBKTNV-1">
                    <mxGeometry x="130" y="330" width="180" height="38" as="geometry">
                        <mxRectangle x="230" y="140" width="160" height="26" as="alternateBounds"/>
                    </mxGeometry>
                </mxCell>
                <mxCell id="180" value="" style="line;html=1;strokeWidth=1;align=left;verticalAlign=middle;spacingTop=-1;spacingLeft=3;spacingRight=3;rotatable=0;labelPosition=right;points=[];portConstraint=eastwest;fontSize=12;" vertex="1" parent="179">
                    <mxGeometry y="30" width="180" height="8" as="geometry"/>
                </mxCell>
                <mxCell id="181" style="edgeStyle=orthogonalEdgeStyle;rounded=0;orthogonalLoop=1;jettySize=auto;html=1;exitX=0.5;exitY=0;exitDx=0;exitDy=0;entryX=0.497;entryY=0.987;entryDx=0;entryDy=0;endArrow=open;endFill=0;endSize=10;entryPerimeter=0;" edge="1" parent="WIyWlLk6GJQsqaUBKTNV-1" source="66" target="180">
                    <mxGeometry relative="1" as="geometry">
                        <mxPoint x="60" y="553" as="sourcePoint"/>
                        <mxPoint x="170" y="280" as="targetPoint"/>
                    </mxGeometry>
                </mxCell>
                <mxCell id="182" value="ChaveUnicaException" style="swimlane;fontStyle=2;align=center;verticalAlign=top;childLayout=stackLayout;horizontal=1;startSize=30;horizontalStack=0;resizeParent=1;resizeLast=0;collapsible=1;marginBottom=0;rounded=0;shadow=0;strokeWidth=1;fontSize=12;" vertex="1" parent="WIyWlLk6GJQsqaUBKTNV-1">
                    <mxGeometry x="510" y="-50" width="180" height="38" as="geometry">
                        <mxRectangle x="230" y="140" width="160" height="26" as="alternateBounds"/>
                    </mxGeometry>
                </mxCell>
                <mxCell id="183" value="" style="line;html=1;strokeWidth=1;align=left;verticalAlign=middle;spacingTop=-1;spacingLeft=3;spacingRight=3;rotatable=0;labelPosition=right;points=[];portConstraint=eastwest;fontSize=12;" vertex="1" parent="182">
                    <mxGeometry y="30" width="180" height="8" as="geometry"/>
                </mxCell>
                <mxCell id="184" style="edgeStyle=orthogonalEdgeStyle;rounded=0;orthogonalLoop=1;jettySize=auto;html=1;exitX=0.5;exitY=0;exitDx=0;exitDy=0;endArrow=open;endFill=0;endSize=10;entryX=0.5;entryY=1;entryDx=0;entryDy=0;" edge="1" parent="WIyWlLk6GJQsqaUBKTNV-1" source="166" target="182">
                    <mxGeometry relative="1" as="geometry">
                        <mxPoint x="461" y="112" as="sourcePoint"/>
                        <mxPoint x="280" y="30" as="targetPoint"/>
                    </mxGeometry>
                </mxCell>
            </root>
        </mxGraphModel>
    </diagram>
</mxfile>